Coordinates
version=1
nRows=29
nColumns=24
inDegrees=yes

Units are S.I. units (second, meters, Newtons, ...)
Angles are in degrees.

endheader
time	pelvis_tilt	pelvis_list	pelvis_rotation	pelvis_tx	pelvis_ty	pelvis_tz	hip_flexion_r	hip_adduction_r	hip_rotation_r	knee_angle_r	ankle_angle_r	subtalar_angle_r	mtp_angle_r	hip_flexion_l	hip_adduction_l	hip_rotation_l	knee_angle_l	ankle_angle_l	subtalar_angle_l	mtp_angle_l	lumbar_extension	lumbar_bending	lumbar_rotation
      6.04500000	     32.83123244	      7.29203922	      7.73136461	      1.14961575	      0.65158900	     -0.23579199	    -11.46155901	     -4.85730278	     -3.74298728	     -4.78780489	      8.69962448	      1.89653432	      0.00000000	    -44.71000248	     -0.16572445	      6.14554326	    -23.27915316	     25.74425386	     15.38414779	      0.00000000	    -64.77994320	      1.16412813	     -8.28952311
      6.05000000	     32.93709808	      6.88032365	      7.82026138	      1.15509946	      0.65146239	     -0.23533192	    -11.29114048	     -4.32665600	     -3.88657390	     -5.93276082	      8.12680418	      1.59052069	      0.00000000	    -44.75420502	     -0.65384689	      6.08193215	    -24.36041002	     25.25084805	     15.40061129	      0.00000000	    -64.92110719	      1.60024273	     -8.03145064
      6.05500000	     33.04137542	      6.45388036	      7.89775315	      1.16061036	      0.65138692	     -0.23487059	    -11.08809036	     -3.78612318	     -4.06221315	     -7.20634780	      7.60061089	      1.35408373	      0.00000000	    -44.74121299	     -1.13124218	      5.97468001	    -25.54462193	     24.65029994	     15.38363792	      0.00000000	    -65.05455364	      2.03402703	     -7.76285730
      6.06000000	     33.14865117	      6.02964992	      7.95689408	      1.16613066	      0.65135707	     -0.23441122	    -10.86723431	     -3.25760556	     -4.27088170	     -8.57724440	      7.12877054	      1.19894991	      0.00000000	    -44.67618554	     -1.57960029	      5.83179174	    -26.82534907	     23.93218439	     15.33151110	      0.00000000	    -65.19645081	      2.46126241	     -7.50204181
      6.06500000	     33.20596127	      5.59173645	      8.01180035	      1.17174617	      0.65133125	     -0.23393089	    -10.59633542	     -2.72001468	     -4.44007356	     -9.99084508	      6.75113223	      1.03987084	      0.00000000	    -44.49730077	     -2.01990624	      5.62865113	    -28.22067738	     23.08947114	     15.21650449	      0.00000000	    -65.26545120	      2.86268141	     -7.22719261
      6.07000000	     33.32143737	      5.21217322	      8.05730494	      1.17731046	      0.65138469	     -0.23341259	    -10.39625111	     -2.24303846	     -4.64260889	    -11.43662953	      6.42635947	      1.01960770	      0.00000000	    -44.33174112	     -2.41819185	      5.41017561	    -29.67757535	     22.10168002	     15.09875275	      0.00000000	    -65.40947200	      3.21493012	     -7.01931740
      6.07500000	     33.12715229	      4.84224225	      7.96238144	      1.18290964	      0.65122813	     -0.23284092	     -9.78663144	     -1.85968625	     -4.60919690	    -13.00208567	      6.30549769	      0.93582848	      0.00000000	    -43.73651637	     -2.62382859	      5.10724240	    -31.32573600	     21.00431086	     14.83580563	      0.00000000	    -65.23913243	      3.43229467	     -6.82005677
      6.08000000	     33.25994121	      4.48174385	      8.01658539	      1.18860773	      0.65134251	     -0.23235152	     -9.70471409	     -1.39536591	     -4.85515183	    -14.32577014	      6.20553051	      0.94338499	      0.00000000	    -43.49076326	     -3.01248621	      4.78839317	    -32.92900995	     19.73806805	     14.56188970	      0.00000000	    -65.35926012	      3.78011578	     -6.61246516
      6.08500000	     33.12964828	      4.20095804	      7.97539181	      1.19425578	      0.65129266	     -0.23179853	     -9.28814786	     -1.07843078	     -4.87642218	    -15.74450736	      6.32257548	      0.99240728	      0.00000000	    -42.86337697	     -3.20286659	      4.47988189	    -34.68873607	     18.34449024	     14.14617641	      0.00000000	    -65.22832925	      3.97693597	     -6.52120159
      6.09000000	     33.11955837	      3.91980706	      7.98633547	      1.19995065	      0.65135150	     -0.23121447	     -9.10816406	     -0.71179949	     -4.96004968	    -16.98466390	      6.50064870	      1.00511638	      0.00000000	    -42.32905126	     -3.48084101	      4.08986665	    -36.46005610	     16.83588303	     13.68580718	      0.00000000	    -65.19675215	      4.20171065	     -6.41290611
      6.09500000	     33.25300005	      3.61684461	      8.07541296	      1.20575289	      0.65155920	     -0.23065162	     -9.21027741	     -0.26378906	     -5.10541500	    -18.01550543	      6.70481975	      0.96720364	      0.00000000	    -41.93367063	     -3.88653710	      3.63564356	    -38.19882974	     15.20790358	     13.20755418	      0.00000000	    -65.26720915	      4.49961305	     -6.27800797
      6.10000000	     33.25474086	      3.38217326	      8.10960248	      1.21140993	      0.65166009	     -0.23014191	     -9.14472170	      0.07305023	     -5.10169796	    -19.08877211	      7.09600952	      0.99468916	      0.00000000	    -41.30948071	     -4.13201775	      3.25900561	    -40.04114618	     13.52588012	     12.40895240	      0.00000000	    -65.22889146	      4.73062322	     -6.22519442
      6.10500000	     33.29597202	      3.13702608	      8.17636586	      1.21718416	      0.65186033	     -0.22953310	     -9.23235960	      0.46045516	     -5.18855434	    -19.96817132	      7.54278012	      0.93065342	      0.00000000	    -40.71475002	     -4.47971139	      2.74069176	    -41.82935267	     11.74017143	     11.66908756	      0.00000000	    -65.19353254	      4.97086969	     -6.15030666
      6.11000000	     33.15087130	      2.99116101	      8.19508468	      1.22280111	      0.65194877	     -0.22887536	     -9.11061585	      0.71004012	     -5.12632962	    -20.86385699	      8.18987622	      0.97604433	      0.00000000	    -39.82140328	     -4.67074553	      2.28967510	    -43.71923873	      9.94433909	     10.77888315	      0.00000000	    -65.00498529	      5.07196340	     -6.18347266
      6.11500000	     33.25633106	      2.71463050	      8.32731189	      1.22860732	      0.65226107	     -0.22826973	     -9.41096054	      1.19268677	     -5.16152337	    -21.47945611	      8.70310626	      0.83324315	      0.00000000	    -39.23553349	     -5.13524231	      1.71970178	    -45.46361933	      8.18904182	      9.80949076	      0.00000000	    -64.99234705	      5.35421827	     -6.06298140
      6.12000000	     33.32726305	      2.51066288	      8.43687702	      1.23425460	      0.65257964	     -0.22770118	     -9.70512040	      1.58934386	     -5.12694503	    -22.03583081	      9.33149948	      0.76263546	      0.00000000	    -38.55357419	     -5.50176454	      1.20174084	    -47.22453061	      6.47601715	      8.65552299	      0.00000000	    -64.97881837	      5.59425525	     -6.00244170
      6.12500000	     33.39394464	      2.29669692	      8.57584718	      1.24001090	      0.65295674	     -0.22702450	    -10.06593788	      2.02882932	     -5.12986227	    -22.47685344	      9.99559180	      0.65949100	      0.00000000	    -37.86967560	     -5.94208672	      0.63683877	    -48.90059985	      4.85649795	      7.46253490	      0.00000000	    -64.91483969	      5.79347925	     -5.92171856
      6.13000000	     33.45409795	      2.10423769	      8.69592769	      1.24560421	      0.65336100	     -0.22645760	    -10.44511921	      2.43165003	     -5.09556158	    -22.84914391	     10.65901372	      0.58701327	      0.00000000	    -37.13616642	     -6.32381629	      0.10497439	    -50.56675260	      3.39494828	      6.12994278	      0.00000000	    -64.87579826	      6.01164402	     -5.84720810
      6.13500000	     33.48792161	      1.95759752	      8.82290412	      1.25110371	      0.65380758	     -0.22586544	    -10.83518762	      2.79286988	     -5.03260079	    -23.15200665	     11.33158821	      0.56468499	      0.00000000	    -36.34161073	     -6.67630988	     -0.39727240	    -52.19558486	      2.10661385	      4.74400567	      0.00000000	    -64.83120529	      6.19355703	     -5.79337083
      6.14000000	     33.56328480	      1.74381286	      8.96212504	      1.25679872	      0.65433718	     -0.22526483	    -11.35424701	      3.25094253	     -5.00853786	    -23.30354532	     11.99340266	      0.45329603	      0.00000000	    -35.63964062	     -7.12548976	     -0.96232945	    -53.69038041	      1.06038831	      3.37501236	      0.00000000	    -64.75137499	      6.39216496	     -5.67166541
      6.14500000	     33.64260942	      1.59379912	      9.07087937	      1.26225477	      0.65492702	     -0.22475866	    -11.88845197	      3.61697964	     -4.96851987	    -23.42049603	     12.59777922	      0.41587228	      0.00000000	    -34.90196044	     -7.47005749	     -1.48234189	    -55.15600188	      0.20453112	      1.92301098	      0.00000000	    -64.74726599	      6.57759210	     -5.56790794
      6.15000000	     33.72465202	      1.44549093	      9.17603183	      1.26775285	      0.65557758	     -0.22424171	    -12.47838238	      3.98844092	     -4.92041943	    -23.44695642	     13.19111567	      0.38811520	      0.00000000	    -34.18312872	     -7.81271512	     -1.99260403	    -56.52645296	     -0.38996136	      0.50376536	      0.00000000	    -64.71804537	      6.73161339	     -5.45360122
      6.15500000	     33.80706534	      1.33039671	      9.26419874	      1.27318816	      0.65629102	     -0.22375419	    -13.10406068	      4.31771620	     -4.85348026	    -23.41027212	     13.75287973	      0.40360404	      0.00000000	    -33.46135262	     -8.09780905	     -2.46649103	    -57.82196375	     -0.76383988	     -0.89421480	      0.00000000	    -64.70055597	      6.85254195	     -5.34410759
      6.16000000	     33.89632043	      1.21184239	      9.32296747	      1.27863210	      0.65705987	     -0.22330032	    -13.77823465	      4.63602504	     -4.80979583	    -23.29519034	     14.26829286	      0.40024927	      0.00000000	    -32.77075799	     -8.36575993	     -2.97649159	    -59.01473470	     -0.85649432	     -2.21854995	      0.00000000	    -64.68387762	      6.95945956	     -5.21537537
      6.16500000	     33.98597154	      1.13115760	      9.35277152	      1.28399515	      0.65789036	     -0.22287136	    -14.48125416	      4.89951233	     -4.74546730	    -23.12748738	     14.74353874	      0.44797544	      0.00000000	    -32.07672763	     -8.55733053	     -3.44772379	    -60.12870918	     -0.77575035	     -3.48943376	      0.00000000	    -64.68516827	      7.02267005	     -5.09189850
      6.17000000	     34.06974311	      1.08021652	      9.35345196	      1.28931257	      0.65876687	     -0.22246309	    -15.20782766	      5.11470930	     -4.67450096	    -22.90779644	     15.18789787	      0.52798904	      0.00000000	    -31.38148422	     -8.68568947	     -3.90268047	    -61.15521107	     -0.50563168	     -4.66496058	      0.00000000	    -64.69118212	      7.04817092	     -4.97641700
      6.17500000	     34.14295255	      1.05254212	      9.32718121	      1.29462815	      0.65968983	     -0.22209345	    -15.96208018	      5.28954702	     -4.57748661	    -22.62164198	     15.58730747	      0.62520448	      0.00000000	    -30.68957224	     -8.75206228	     -4.33597259	    -62.08260224	     -0.05134289	     -5.71005532	      0.00000000	    -64.68180388	      7.04126179	     -4.86812003
      6.18000000	     34.21049528	      1.05241362	      9.26651087	      1.29984923	      0.66063956	     -0.22173793	    -16.72033961	      5.40923807	     -4.50522322	    -22.31062083	     15.96306292	      0.76074492	      0.00000000	    -29.98256861	     -8.75432119	     -4.76251893	    -62.93575561	      0.49033326	     -6.65490813	      0.00000000	    -64.69617526	      6.99626476	     -4.76296387
      6.18500000	     34.26674767	      1.08021164	      9.17800248	      1.30502100	      0.66161097	     -0.22140179	    -17.48621610	      5.47909906	     -4.43555946	    -21.96275688	     16.31572717	      0.92103419	      0.00000000	    -29.26490714	     -8.69366166	     -5.17353312	    -63.70190281	      1.14018254	     -7.45542870	      0.00000000	    -64.71119721	      6.91315131	     -4.67230197
